<svg width="142" height="41" viewBox="0 0 142 41" fill="none" xmlns="http://www.w3.org/2000/svg">
<g clip-path="url(#clip0_557_48202)">
<rect width="13.3564" height="40.0693" fill="black"/>
<path d="M26.7129 26.7129C29.3546 26.7129 31.9369 25.9295 34.1333 24.4619C36.3298 22.9943 38.0417 20.9083 39.0526 18.4677C40.0636 16.0272 40.3281 13.3416 39.8127 10.7507C39.2973 8.15983 38.0253 5.77994 36.1573 3.91201C34.2894 2.04408 31.9095 0.772001 29.3186 0.25664C26.7277 -0.258721 24.0422 0.00578044 21.6016 1.0167C19.161 2.02761 17.0751 3.73954 15.6074 5.936C14.1398 8.13245 13.3565 10.7148 13.3565 13.3564L26.7129 13.3564L26.7129 26.7129Z" fill="black"/>
<path d="M14.3731 31.8242C13.7019 30.2037 13.3564 28.4669 13.3564 26.7129L40.0693 26.7129V40.0693L26.7129 40.0693C24.9589 40.0693 23.2221 39.7239 21.6016 39.0526C19.9811 38.3814 18.5087 37.3976 17.2685 36.1573C16.0282 34.9171 15.0444 33.4447 14.3731 31.8242Z" fill="black"/>
<rect x="13.3564" y="13.3564" width="13.3564" height="13.3564" fill="#9ACEA8"/>
<path d="M46.9805 0.0546875H54.1344C55.2722 0.0546875 56.2775 0.288476 57.1503 0.756053C58.0231 1.20804 58.7011 1.83927 59.1842 2.64974C59.6674 3.46021 59.909 4.37978 59.909 5.40845C59.909 6.76442 59.4726 7.92557 58.5998 8.8919C57.7269 9.84264 56.5736 10.4193 55.1397 10.6219L61.2416 17.2381H57.0334L50.9783 10.6921H50.16V17.2381H46.9805V0.0546875ZM54.1344 7.83985C54.8825 7.83985 55.4826 7.62164 55.9346 7.18524C56.3866 6.73325 56.6126 6.14878 56.6126 5.43182C56.6126 4.73046 56.3866 4.16157 55.9346 3.72517C55.4826 3.28876 54.8825 3.07056 54.1344 3.07056H50.16V7.83985H54.1344Z" fill="black"/>
<path d="M62.005 11.0895C62.005 9.87381 62.27 8.78279 62.7999 7.81647C63.3454 6.85014 64.0858 6.09422 65.0209 5.54872C65.9716 4.98763 67.0393 4.70708 68.2238 4.70708C69.4551 4.70708 70.5305 4.97204 71.4501 5.50196C72.3697 6.0163 73.0788 6.75663 73.5776 7.72295C74.0763 8.68928 74.3257 9.81146 74.3257 11.0895C74.3257 11.4636 74.3023 11.861 74.2556 12.2818H65.1378C65.2781 13.0611 65.6288 13.6534 66.1899 14.0586C66.7509 14.4483 67.4913 14.6431 68.4108 14.6431C69.0499 14.6431 69.6188 14.5184 70.1175 14.269C70.6318 14.0041 71.0059 13.6768 71.2397 13.2871L73.6945 14.9236C73.149 15.7029 72.393 16.3264 71.4267 16.7939C70.4604 17.2459 69.4083 17.4719 68.2706 17.4719C67.0393 17.4719 65.9483 17.2148 64.9975 16.7004C64.0468 16.1705 63.3065 15.4302 62.7765 14.4794C62.2622 13.5131 62.005 12.3831 62.005 11.0895ZM71.1695 9.64002C70.8422 8.29963 69.8214 7.62944 68.1069 7.62944C67.312 7.62944 66.6652 7.80088 66.1665 8.14377C65.6677 8.48666 65.3404 8.98541 65.1846 9.64002H71.1695Z" fill="black"/>
<path d="M78.1176 4.96425L81.5309 13.7547L84.991 4.96425H88.1471L83.2142 17.2381H79.7775L74.8212 4.96425H78.1176Z" fill="black"/>
<path d="M88.4706 11.0895C88.4706 9.87381 88.7356 8.78279 89.2655 7.81647C89.811 6.85014 90.5514 6.09422 91.4865 5.54872C92.4372 4.98763 93.5049 4.70708 94.6894 4.70708C95.9207 4.70708 96.9961 4.97204 97.9157 5.50196C98.8353 6.0163 99.5444 6.75663 100.043 7.72295C100.542 8.68928 100.791 9.81146 100.791 11.0895C100.791 11.4636 100.768 11.861 100.721 12.2818H91.6034C91.7437 13.0611 92.0944 13.6534 92.6554 14.0586C93.2165 14.4483 93.9569 14.6431 94.8764 14.6431C95.5155 14.6431 96.0843 14.5184 96.5831 14.269C97.0974 14.0041 97.4715 13.6768 97.7053 13.2871L100.16 14.9236C99.6146 15.7029 98.8586 16.3264 97.8923 16.7939C96.926 17.2459 95.8739 17.4719 94.7362 17.4719C93.5049 17.4719 92.4139 17.2148 91.4631 16.7004C90.5124 16.1705 89.7721 15.4302 89.2421 14.4794C88.7278 13.5131 88.4706 12.3831 88.4706 11.0895ZM97.6351 9.64002C97.3078 8.29963 96.287 7.62944 94.5725 7.62944C93.7776 7.62944 93.1308 7.80088 92.6321 8.14377C92.1333 8.48666 91.806 8.98541 91.6502 9.64002H97.6351Z" fill="black"/>
<path d="M111.141 10.3414C111.141 9.46857 110.939 8.79838 110.533 8.3308C110.128 7.86323 109.551 7.62944 108.803 7.62944C107.93 7.62944 107.237 7.87881 106.723 8.37756C106.224 8.87631 105.974 9.57767 105.974 10.4817V17.2381H102.935V4.96425H105.811V6.64752C106.263 6.03967 106.816 5.5643 107.471 5.22142C108.141 4.87853 108.905 4.70708 109.762 4.70708C111.133 4.70708 112.224 5.15128 113.035 6.03968C113.845 6.91249 114.251 8.2217 114.251 9.96732V17.2381H111.141V10.3414Z" fill="black"/>
<path d="M122.213 17.4719C120.483 17.4719 119.112 16.981 118.099 15.9991C117.101 15.0172 116.602 13.6846 116.602 12.0013V4.96425H119.642V12.0013C119.642 12.765 119.875 13.3884 120.343 13.8716C120.826 14.3392 121.45 14.573 122.213 14.573C122.977 14.573 123.593 14.3392 124.06 13.8716C124.543 13.3884 124.785 12.765 124.785 12.0013V4.96425H127.824V12.0013C127.824 13.0767 127.59 14.0275 127.123 14.8535C126.655 15.6796 125.993 16.3264 125.136 16.7939C124.294 17.2459 123.32 17.4719 122.213 17.4719Z" fill="black"/>
<path d="M129.679 11.0895C129.679 9.87381 129.944 8.78279 130.474 7.81647C131.02 6.85014 131.76 6.09422 132.695 5.54872C133.646 4.98763 134.714 4.70708 135.898 4.70708C137.129 4.70708 138.205 4.97204 139.124 5.50196C140.044 6.0163 140.753 6.75663 141.252 7.72295C141.751 8.68928 142 9.81146 142 11.0895C142 11.4636 141.977 11.861 141.93 12.2818H132.812C132.952 13.0611 133.303 13.6534 133.864 14.0586C134.425 14.4483 135.166 14.6431 136.085 14.6431C136.724 14.6431 137.293 14.5184 137.792 14.269C138.306 14.0041 138.68 13.6768 138.914 13.2871L141.369 14.9236C140.823 15.7029 140.067 16.3264 139.101 16.7939C138.135 17.2459 137.083 17.4719 135.945 17.4719C134.714 17.4719 133.623 17.2148 132.672 16.7004C131.721 16.1705 130.981 15.4302 130.451 14.4794C129.936 13.5131 129.679 12.3831 129.679 11.0895ZM138.844 9.64002C138.517 8.29963 137.496 7.62944 135.781 7.62944C134.986 7.62944 134.339 7.80088 133.841 8.14377C133.342 8.48666 133.015 8.98541 132.859 9.64002H138.844Z" fill="black"/>
<path d="M46.396 31.341C46.396 29.6421 46.7623 28.1225 47.4948 26.7821C48.2429 25.4261 49.2638 24.3663 50.5574 23.6026C51.8666 22.8389 53.3395 22.457 54.976 22.457C56.519 22.457 57.9062 22.7765 59.1375 23.4156C60.3688 24.039 61.3351 24.904 62.0365 26.0106L59.1609 27.8342C58.3036 26.3067 56.9009 25.543 54.9527 25.543C53.9084 25.543 52.9888 25.7768 52.194 26.2444C51.3991 26.6964 50.7834 27.3588 50.347 28.2316C49.9106 29.0888 49.6924 30.1175 49.6924 31.3176C49.6924 33.1723 50.1756 34.6062 51.1419 35.6193C52.1082 36.6324 53.4019 37.139 55.0228 37.139C55.88 37.139 56.6437 36.9909 57.3139 36.6948C57.9997 36.383 58.5296 35.9544 58.9037 35.4089C59.2933 34.8634 59.4882 34.2556 59.4882 33.5854V32.884H55.0228V29.8681H62.6443V39.8977H59.6518V38.2845C59.0284 38.8768 58.2802 39.3366 57.4074 39.6639C56.5502 39.9756 55.6151 40.1314 54.602 40.1314C53.0278 40.1314 51.6173 39.7652 50.3704 39.0326C49.1235 38.3001 48.1494 37.2714 47.448 35.9466C46.7467 34.6062 46.396 33.071 46.396 31.341Z" fill="black"/>
<path d="M72.8193 27.6238V30.5227H68.05V39.8977H65.0107V27.6238H72.8193Z" fill="black"/>
<path d="M77.4688 27.6238V39.8977H74.4295V27.6238H77.4688ZM75.8323 25.7067C75.2868 25.7067 74.827 25.5275 74.4529 25.169C74.0944 24.8105 73.9152 24.3507 73.9152 23.7896C73.9152 23.2441 74.0944 22.7921 74.4529 22.4336C74.827 22.0596 75.2868 21.8726 75.8323 21.8726C76.3778 21.8726 76.8298 22.0596 77.1882 22.4336C77.5467 22.7921 77.7259 23.2441 77.7259 23.7896C77.7259 24.3507 77.5467 24.8105 77.1882 25.169C76.8298 25.5275 76.3778 25.7067 75.8323 25.7067Z" fill="black"/>
<path d="M88.9746 39.7808V38.1209C88.4914 38.7287 87.9147 39.2041 87.2445 39.547C86.5743 39.8743 85.8574 40.0379 85.0937 40.0379C84.0182 40.0379 83.0519 39.7652 82.1947 39.2197C81.3531 38.6742 80.6906 37.9182 80.2075 36.9519C79.7399 35.9856 79.5061 34.8868 79.5061 33.6555C79.5061 32.4554 79.7477 31.3722 80.2309 30.4058C80.7296 29.4239 81.3998 28.6602 82.2414 28.1147C83.0987 27.5536 84.0494 27.2731 85.0937 27.2731C85.8262 27.2731 86.5042 27.4133 87.1276 27.6939C87.7667 27.9744 88.3277 28.3797 88.8109 28.9096V23.8364H91.8502V39.7808H88.9746ZM82.6856 33.6555C82.6856 34.6686 82.974 35.5024 83.5507 36.157C84.1429 36.7961 84.9144 37.1156 85.8652 37.1156C86.8003 37.1156 87.5562 36.7961 88.1329 36.157C88.7252 35.518 89.0213 34.6842 89.0213 33.6555C89.0213 32.6268 88.733 31.793 88.1563 31.154C87.5796 30.4994 86.8159 30.1721 85.8652 30.1721C84.9144 30.1721 84.1429 30.4994 83.5507 31.154C82.974 31.793 82.6856 32.6268 82.6856 33.6555Z" fill="black"/>
</g>
<defs>
<clipPath id="clip0_557_48202">
<rect width="142" height="40.0693" fill="white"/>
</clipPath>
</defs>
</svg>
